# Blender v2.75 (sub 0) OBJ File: 'lowpolytree.blend'
# www.blender.org
mtllib lowpolytree.mtl
o Cylinder
v -0.005440 -0.809443 -0.939428
v 0.019167 3.227034 0.022684
v 0.637348 -0.809443 -0.705472
v 0.028745 3.227034 0.026170
v 0.979368 -1.003520 -0.113076
v 0.033842 3.227034 0.034997
v 0.860586 -1.003520 0.560572
v 0.032072 3.227034 0.045035
v 0.336580 -0.809443 1.000265
v 0.024263 3.227034 0.051587
v -0.353069 -0.872769 0.994068
v 0.014070 3.227034 0.051587
v -0.871465 -1.003520 0.560572
v 0.006262 3.227034 0.045035
v -0.990247 -1.003520 -0.113076
v 0.004492 3.227034 0.034997
v -0.653837 -1.066847 -0.711668
v 0.009589 3.227034 0.026170
v -0.002290 -0.453387 -0.816288
v 0.559453 -0.453387 -0.611830
v 0.858351 -0.453387 -0.094124
v 0.754545 -0.453387 0.494589
v 0.296607 -0.453387 0.878845
v -0.306797 -0.516713 0.872648
v -0.759126 -0.453387 0.494589
v -0.862932 -0.453387 -0.094124
v -0.569643 -0.516713 -0.618026
v 0.015024 2.516458 -0.139296
v 0.131209 2.516458 -0.097008
v 0.193029 2.516458 0.010068
v 0.171559 2.516458 0.131830
v 0.076845 2.516458 0.211305
v -0.052405 2.453131 0.205109
v -0.141511 2.516458 0.131830
v -0.162981 2.516458 0.010068
v -0.106769 2.453131 -0.103204
v 0.242392 1.745409 -0.230669
v 0.365764 1.745409 -0.016983
v 0.322917 1.745409 0.226012
v 0.133901 1.745409 0.384616
v -0.118452 1.682083 0.378420
v -0.301860 1.745409 0.226012
v -0.344706 1.745409 -0.016983
v -0.226943 1.682082 -0.236866
v 0.010529 1.745409 -0.315061
v 0.365054 0.894761 -0.378129
v 0.556331 0.894761 -0.046827
v 0.489901 0.894761 0.329917
v 0.196847 0.894761 0.575818
v -0.191317 0.831434 0.569622
v -0.478762 0.894761 0.329916
v -0.545192 0.894761 -0.046827
v -0.359524 0.831434 -0.384325
v 0.005569 0.894761 -0.508971
v 0.474390 0.136519 -0.509570
v 0.726197 0.136518 -0.073428
v 0.638746 0.136519 0.422534
v 0.252955 0.136519 0.746250
v -0.256267 0.073192 0.740054
v -0.636448 0.136519 0.422534
v -0.723899 0.136518 -0.073428
v -0.477702 0.073192 -0.515766
v 0.001149 0.136518 -0.681816
v 0.015674 2.466367 -0.253986
v 0.199847 2.466368 -0.186952
v 0.292234 2.403041 -0.023413
v 0.263809 2.466367 0.175798
v 0.113670 2.466367 0.301780
v -0.087932 2.403041 0.295584
v -0.232462 2.466367 0.175798
v -0.266496 2.466367 -0.017217
v -0.174109 2.403041 -0.193148
v 0.010725 1.692862 -0.451635
v 0.324917 1.692862 -0.337279
v 0.486486 1.629535 -0.053915
v 0.434034 1.692862 0.281558
v 0.177903 1.692862 0.496478
v -0.162062 1.629536 0.490282
v -0.412585 1.692862 0.281558
v -0.470645 1.692862 -0.047718
v -0.309076 1.629535 -0.343475
v 0.005286 0.842699 -0.671042
v 0.463775 0.842699 -0.504165
v 0.702124 0.779372 -0.087815
v 0.623007 0.842699 0.398883
v 0.249243 0.842699 0.712509
v -0.244281 0.779373 0.706312
v -0.612436 0.842699 0.398883
v -0.697161 0.842699 -0.081619
v -0.458813 0.779373 -0.510362
v 0.000399 0.078844 -0.831178
v 0.564756 0.078845 -0.625769
v 0.859436 0.015518 -0.111850
v 0.760756 0.078844 0.485799
v 0.300687 0.078845 0.871843
v -0.305499 0.015518 0.865646
v -0.759959 0.078845 0.485799
v -0.864248 0.078844 -0.105654
v -0.569569 0.015518 -0.631965
v 0.669916 -0.512940 -0.752068
v 1.022565 -0.576267 -0.137744
v 0.903752 -0.512940 0.574081
v 0.354870 -0.512940 1.034648
v -0.367254 -0.576267 1.028452
v -0.910528 -0.512940 0.574081
v -1.034949 -0.512941 -0.131548
v -0.682301 -0.576267 -0.758265
v -0.003388 -0.512941 -0.997131
v 0.747414 -1.054853 -0.845319
v 1.143143 -1.118179 -0.156378
v 1.009368 -1.054853 0.640300
v 0.394483 -1.054853 1.156250
v -0.413802 -1.118179 1.150053
v -1.023078 -1.054853 0.640299
v -1.162461 -1.054853 -0.150182
v -0.766733 -1.118179 -0.851516
v -0.006855 -1.054853 -1.119851
v -0.018886 -1.895607 -0.373037
v -0.018886 -0.720161 -0.373037
v 0.231064 -1.895607 -0.282063
v 0.231064 -0.720161 -0.282063
v 0.364060 -1.895607 -0.051708
v 0.364060 -0.720161 -0.051708
v 0.317871 -1.895607 0.210242
v 0.317871 -0.720161 0.210242
v 0.114110 -1.895607 0.381218
v 0.114110 -0.720161 0.381218
v -0.151881 -1.895607 0.381218
v -0.151881 -0.720161 0.381218
v -0.355642 -1.895607 0.210242
v -0.355642 -0.720161 0.210242
v -0.401831 -1.895607 -0.051708
v -0.401831 -0.720161 -0.051708
v -0.268836 -1.895607 -0.282063
v -0.268836 -0.720161 -0.282063
v -0.018886 -1.314390 -0.264436
v 0.161257 -1.314390 -0.198870
v 0.257109 -1.314390 -0.032850
v 0.223820 -1.314390 0.155942
v 0.076966 -1.314390 0.279167
v -0.114738 -1.314390 0.279166
v -0.261591 -1.314390 0.155942
v -0.294880 -1.314390 -0.032850
v -0.199028 -1.314390 -0.198870
vn 0.323800 0.322100 -0.889600
vn 0.873000 0.302200 -0.382700
vn 0.953600 0.297100 0.047700
vn 0.610900 0.311200 0.728000
vn -0.116400 0.296500 0.947900
vn -0.531300 0.301500 0.791700
vn -0.932700 0.321000 0.164500
vn 0.000000 1.000000 -0.000000
vn -0.380900 0.316900 -0.868600
vn -0.789800 0.316600 -0.525300
vn 0.041500 -0.999100 0.002400
vn -0.766700 0.431000 -0.475700
vn -0.335600 0.430400 -0.837900
vn -0.889800 0.428500 0.156900
vn -0.551100 0.423000 0.719300
vn -0.045500 0.418700 0.907000
vn 0.584400 0.416300 0.696500
vn 0.907900 0.396000 0.137600
vn 0.802300 0.402500 -0.440800
vn 0.309300 0.426600 -0.849900
vn -0.783800 0.337000 -0.521700
vn -0.378300 0.336700 -0.862300
vn -0.927900 0.335100 0.163600
vn -0.527700 0.328800 0.783200
vn -0.112700 0.325600 0.938800
vn 0.607800 0.325400 0.724400
vn 0.943700 0.312200 0.109300
vn 0.844400 0.317300 -0.431700
vn 0.322400 0.334200 -0.885700
vn 0.320900 0.345800 -0.881700
vn 0.832500 0.330400 -0.444700
vn 0.936600 0.326000 0.128300
vn 0.604700 0.339000 0.720700
vn -0.073500 0.340900 0.937200
vn -0.553400 0.344100 0.758500
vn -0.923000 0.348700 0.162700
vn -0.357900 0.349000 -0.866100
vn -0.790600 0.350000 -0.502400
vn -0.795700 0.350700 -0.493900
vn -0.348600 0.349600 -0.869600
vn -0.922800 0.349100 0.162700
vn -0.566400 0.344600 0.748700
vn -0.055100 0.340800 0.938500
vn 0.604800 0.338500 0.720800
vn 0.935900 0.324300 0.137500
vn 0.829000 0.329300 -0.452000
vn 0.320900 0.346100 -0.881600
vn 0.311400 0.413300 -0.855700
vn 0.807700 0.391000 -0.441200
vn 0.912900 0.384900 0.135700
vn 0.588100 0.403500 0.700900
vn -0.050900 0.405600 0.912600
vn -0.551300 0.409600 0.726800
vn -0.896000 0.415000 0.158000
vn -0.340400 0.416800 -0.842900
vn -0.770800 0.417400 -0.481200
vn 0.182400 -0.862800 0.471500
vn 0.434600 -0.856700 0.277800
vn 0.451100 -0.888900 -0.079500
vn 0.033800 -0.816400 -0.576500
vn 0.332600 -0.824000 -0.458600
vn -0.304900 -0.880400 -0.363300
vn -0.650200 -0.758200 0.048500
vn -0.618900 -0.766100 0.173400
vn -0.143900 -0.907200 0.395400
vn -0.129500 -0.925500 0.355900
vn -0.535900 -0.819600 0.202800
vn -0.587300 -0.809300 -0.008200
vn -0.269100 -0.908100 -0.320700
vn 0.198400 -0.887000 -0.417000
vn 0.115600 -0.885800 -0.449500
vn 0.398700 -0.914400 -0.070300
vn 0.303300 -0.907700 0.290100
vn 0.229600 -0.909100 0.347700
vn 0.213700 -0.937900 0.273300
vn 0.232200 -0.937700 0.258600
vn 0.335600 -0.940100 -0.059200
vn 0.120800 -0.925500 -0.359000
vn 0.137900 -0.925700 -0.352300
vn -0.226300 -0.936000 -0.269700
vn -0.512900 -0.858100 -0.023500
vn -0.461800 -0.865900 0.192000
vn -0.110700 -0.946200 0.304100
vn -0.130200 -0.924700 0.357700
vn -0.503100 -0.832000 0.233900
vn -0.569500 -0.820500 -0.049400
vn -0.266000 -0.910400 -0.317000
vn 0.107200 -0.903800 -0.414400
vn 0.183900 -0.904700 -0.384400
vn 0.392700 -0.917000 -0.069300
vn 0.223200 -0.920100 0.321800
vn 0.279900 -0.919300 0.276500
vn 0.243400 -0.939800 0.240100
vn 0.193800 -0.940200 0.280100
vn 0.338100 -0.939200 -0.059600
vn 0.157200 -0.930900 -0.329700
vn 0.092200 -0.930300 -0.355000
vn -0.228200 -0.934800 -0.272000
vn -0.498900 -0.865600 -0.043200
vn -0.442200 -0.873000 0.205700
vn -0.113300 -0.943500 0.311400
vn -0.281700 -0.567300 0.773800
vn -0.696600 -0.665800 0.267300
vn -0.464800 -0.884400 -0.041800
vn -0.511600 -0.723900 -0.462700
vn 0.052300 -0.535900 -0.842700
vn 0.463500 -0.730300 -0.501900
vn 0.295600 -0.953900 -0.052100
vn 0.366300 -0.744100 0.558700
vn 0.211800 -0.954000 0.212200
vn 0.337100 -0.169300 -0.926100
vn 0.853500 -0.169300 -0.492800
vn 0.970600 -0.169300 0.171100
vn 0.633500 -0.169300 0.755000
vn -0.000000 -0.169300 0.985600
vn -0.633500 -0.169300 0.755000
vn -0.970600 -0.169300 0.171100
vn -0.337100 -0.169300 -0.926100
vn -0.853500 -0.169300 -0.492800
vn 0.000000 -1.000000 0.000000
vn -0.853000 0.172900 -0.492500
vn -0.336900 0.172900 -0.925500
vn -0.970000 0.172900 0.171000
vn -0.633100 0.172900 0.754500
vn -0.000000 0.172900 0.984900
vn 0.633100 0.172900 0.754500
vn 0.970000 0.172900 0.171000
vn 0.853000 0.172900 -0.492500
vn 0.336900 0.172900 -0.925500
f 136//111 119//111 121//111 137//111
f 137//112 121//112 123//112 138//112
f 138//113 123//113 125//113 139//113
f 139//114 125//114 127//114 140//114
f 140//115 127//115 129//115 141//115
f 141//116 129//116 131//116 142//116
f 142//117 131//117 133//117 143//117
f 121//8 119//8 135//8 133//8 131//8 129//8 127//8 125//8 123//8
f 144//118 135//118 119//118 136//118
f 143//119 133//119 135//119 144//119
f 118//120 120//120 122//120 124//120 126//120 128//120 130//120 132//120 134//120
f 132//121 143//121 144//121 134//121
f 134//122 144//122 136//122 118//122
f 130//123 142//123 143//123 132//123
f 128//124 141//124 142//124 130//124
f 126//125 140//125 141//125 128//125
f 124//126 139//126 140//126 126//126
f 122//127 138//127 139//127 124//127
f 120//128 137//128 138//128 122//128
f 118//129 136//129 137//129 120//129