# MagicaVoxel @ Ephtracy

# group
o 

# material
mtllib Pine ver. 2.mtl
usemtl palette

# normals
vn -1 0 0
vn 1 0 0
vn 0 0 1
vn 0 0 -1
vn 0 -1 0
vn 0 1 0

# texcoords
vt 0.400391 0.5
vt 0.533203 0.5
vt 0.537109 0.5
vt 0.572266 0.5
vt 0.904297 0.5
vt 0.966797 0.5

# verts
v 4 1.7 2.4
v 4 1.7 -2.4
v 4 3.2 2.4
v 4 3.2 -2.4
v 4 3.3 2.4
v 4 3.3 -2.4
v 4.7 3.3 1.7
v 4.7 3.3 -1.7
v 4.7 4.8 1.7
v 4.7 4.8 -1.7
v 4.7 4.9 1.7
v 4.7 4.9 -1.7
v 5.3 4.9 1.1
v 5.3 4.9 -1.1
v 5.3 6.4 1.1
v 5.3 6.4 -1.1
v 5.3 6.5 1.1
v 5.3 6.5 -1.1
v 5.6 0.1 0.8
v 5.6 0.1 -0.8
v 5.6 1.7 0.8
v 5.6 1.7 -0.8
v 5.7 6.5 0.7
v 5.7 6.5 -0.7
v 5.7 8 0.7
v 5.7 8 -0.7
v 5.7 8.1 0.7
v 5.7 8.1 -0.7
v 6 8.1 0.4
v 6 8.1 -0.4
v 6 9.6 0.4
v 6 9.6 -0.4
v 6 9.7 0.4
v 6 9.7 -0.4
v 6.8 8.1 0.4
v 6.8 8.1 -0.4
v 6.8 9.6 0.4
v 6.8 9.6 -0.4
v 6.8 9.7 0.4
v 6.8 9.7 -0.4
v 7.1 6.5 0.7
v 7.1 6.5 -0.7
v 7.1 8 0.7
v 7.1 8 -0.7
v 7.1 8.1 0.7
v 7.1 8.1 -0.7
v 7.2 0.1 0.8
v 7.2 0.1 -0.8
v 7.2 1.7 0.8
v 7.2 1.7 -0.8
v 7.5 4.9 1.1
v 7.5 4.9 -1.1
v 7.5 6.4 1.1
v 7.5 6.4 -1.1
v 7.5 6.5 1.1
v 7.5 6.5 -1.1
v 8.1 3.3 1.7
v 8.1 3.3 -1.7
v 8.1 4.8 1.7
v 8.1 4.8 -1.7
v 8.1 4.9 1.7
v 8.1 4.9 -1.7
v 8.8 1.7 2.4
v 8.8 1.7 -2.4
v 8.8 3.2 2.4
v 8.8 3.2 -2.4
v 8.8 3.3 2.4
v 8.8 3.3 -2.4
v 4 1.7 2.4
v 4 3.2 2.4
v 4 3.3 2.4
v 8.8 1.7 2.4
v 8.8 3.2 2.4
v 8.8 3.3 2.4
v 4.7 3.3 1.7
v 4.7 4.8 1.7
v 4.7 4.9 1.7
v 8.1 3.3 1.7
v 8.1 4.8 1.7
v 8.1 4.9 1.7
v 5.3 4.9 1.1
v 5.3 6.4 1.1
v 5.3 6.5 1.1
v 7.5 4.9 1.1
v 7.5 6.4 1.1
v 7.5 6.5 1.1
v 5.6 0.1 0.8
v 5.6 1.7 0.8
v 7.2 0.1 0.8
v 7.2 1.7 0.8
v 5.7 6.5 0.7
v 5.7 8 0.7
v 5.7 8.1 0.7
v 7.1 6.5 0.7
v 7.1 8 0.7
v 7.1 8.1 0.7
v 6 8.1 0.4
v 6 9.6 0.4
v 6 9.7 0.4
v 6.8 8.1 0.4
v 6.8 9.6 0.4
v 6.8 9.7 0.4
v 6 8.1 -0.4
v 6 9.6 -0.4
v 6 9.7 -0.4
v 6.8 8.1 -0.4
v 6.8 9.6 -0.4
v 6.8 9.7 -0.4
v 5.7 6.5 -0.7
v 5.7 8 -0.7
v 5.7 8.1 -0.7
v 7.1 6.5 -0.7
v 7.1 8 -0.7
v 7.1 8.1 -0.7
v 5.6 0.1 -0.8
v 5.6 1.7 -0.8
v 7.2 0.1 -0.8
v 7.2 1.7 -0.8
v 5.3 4.9 -1.1
v 5.3 6.4 -1.1
v 5.3 6.5 -1.1
v 7.5 4.9 -1.1
v 7.5 6.4 -1.1
v 7.5 6.5 -1.1
v 4.7 3.3 -1.7
v 4.7 4.8 -1.7
v 4.7 4.9 -1.7
v 8.1 3.3 -1.7
v 8.1 4.8 -1.7
v 8.1 4.9 -1.7
v 4 1.7 -2.4
v 4 3.2 -2.4
v 4 3.3 -2.4
v 8.8 1.7 -2.4
v 8.8 3.2 -2.4
v 8.8 3.3 -2.4
v 5.6 0.1 0.8
v 7.2 0.1 0.8
v 5.7 0.1 0.7
v 7.1 0.1 0.7
v 5.8 0.1 0.6
v 7 0.1 0.6
v 5.9 0.1 0.5
v 6.9 0.1 0.5
v 6 0.1 0.4
v 6.8 0.1 0.4
v 6.1 0.1 0.3
v 6.7 0.1 0.3
v 6.2 0.1 0.2
v 6.6 0.1 0.2
v 6.3 0.1 0.0999999
v 6.5 0.1 0.0999999
v 6.3 0.1 -0.1
v 6.5 0.1 -0.1
v 6.2 0.1 -0.2
v 6.6 0.1 -0.2
v 6.1 0.1 -0.3
v 6.7 0.1 -0.3
v 6 0.1 -0.4
v 6.8 0.1 -0.4
v 5.9 0.1 -0.5
v 6.9 0.1 -0.5
v 5.8 0.1 -0.6
v 7 0.1 -0.6
v 5.7 0.1 -0.7
v 7.1 0.1 -0.7
v 5.6 0.1 -0.8
v 7.2 0.1 -0.8
v 4 1.7 2.4
v 8.8 1.7 2.4
v 5.6 1.7 0.8
v 7.2 1.7 0.8
v 5.6 1.7 -0.8
v 7.2 1.7 -0.8
v 4 1.7 -2.4
v 8.8 1.7 -2.4
v 4 3.3 2.4
v 8.8 3.3 2.4
v 4.7 3.3 1.7
v 8.1 3.3 1.7
v 4.7 3.3 -1.7
v 8.1 3.3 -1.7
v 4 3.3 -2.4
v 8.8 3.3 -2.4
v 4.7 4.9 1.7
v 8.1 4.9 1.7
v 5.3 4.9 1.1
v 7.5 4.9 1.1
v 5.3 4.9 -1.1
v 7.5 4.9 -1.1
v 4.7 4.9 -1.7
v 8.1 4.9 -1.7
v 5.3 6.5 1.1
v 7.5 6.5 1.1
v 5.7 6.5 0.7
v 7.1 6.5 0.7
v 5.7 6.5 -0.7
v 7.1 6.5 -0.7
v 5.3 6.5 -1.1
v 7.5 6.5 -1.1
v 5.7 8.1 0.7
v 7.1 8.1 0.7
v 6 8.1 0.4
v 6.8 8.1 0.4
v 6 8.1 -0.4
v 6.8 8.1 -0.4
v 5.7 8.1 -0.7
v 7.1 8.1 -0.7
v 6 9.7 0.4
v 6.8 9.7 0.4
v 6 9.7 -0.4
v 6.8 9.7 -0.4

# faces arboles
f 3/5/1 2/5/1 1/5/1
f 4/5/1 2/5/1 3/5/1
f 9/5/1 8/5/1 7/5/1
f 10/5/1 8/5/1 9/5/1
f 15/5/1 14/5/1 13/5/1
f 16/5/1 14/5/1 15/5/1
f 25/5/1 24/5/1 23/5/1
f 26/5/1 24/5/1 25/5/1
f 31/5/1 30/5/1 29/5/1
f 32/5/1 30/5/1 31/5/1
f 35/5/2 36/5/2 37/5/2
f 37/5/2 36/5/2 38/5/2
f 41/5/2 42/5/2 43/5/2
f 43/5/2 42/5/2 44/5/2
f 51/5/2 52/5/2 53/5/2
f 53/5/2 52/5/2 54/5/2
f 57/5/2 58/5/2 59/5/2
f 59/5/2 58/5/2 60/5/2
f 63/5/2 64/5/2 65/5/2
f 65/5/2 64/5/2 66/5/2
f 72/5/3 70/5/3 69/5/3
f 73/5/3 70/5/3 72/5/3
f 78/5/3 76/5/3 75/5/3
f 79/5/3 76/5/3 78/5/3
f 84/5/3 82/5/3 81/5/3
f 85/5/3 82/5/3 84/5/3
f 94/5/3 92/5/3 91/5/3
f 95/5/3 92/5/3 94/5/3
f 100/5/3 98/5/3 97/5/3
f 101/5/3 98/5/3 100/5/3
f 103/5/4 104/5/4 106/5/4
f 106/5/4 104/5/4 107/5/4
f 109/5/4 110/5/4 112/5/4
f 112/5/4 110/5/4 113/5/4
f 119/5/4 120/5/4 122/5/4
f 122/5/4 120/5/4 123/5/4
f 125/5/4 126/5/4 128/5/4
f 128/5/4 126/5/4 129/5/4
f 131/5/4 132/5/4 134/5/4
f 134/5/4 132/5/4 135/5/4
f 171/5/5 170/5/5 169/5/5
f 172/5/5 170/5/5 171/5/5
f 173/5/5 171/5/5 169/5/5
f 174/5/5 170/5/5 172/5/5
f 175/5/5 173/5/5 169/5/5
f 175/5/5 174/5/5 173/5/5
f 176/5/5 170/5/5 174/5/5
f 176/5/5 174/5/5 175/5/5