# MagicaVoxel @ Ephtracy

# group
o 

# material
mtllib Pine ver. 2.mtl
usemtl palette

# normals
vn -1 0 0
vn 1 0 0
vn 0 0 1
vn 0 0 -1
vn 0 -1 0
vn 0 1 0

# texcoords
vt 0.400391 0.5
vt 0.533203 0.5
vt 0.537109 0.5
vt 0.572266 0.5
vt 0.904297 0.5
vt 0.966797 0.5

# verts
v 4 1.7 2.4
v 4 1.7 -2.4
v 4 3.2 2.4
v 4 3.2 -2.4
v 4 3.3 2.4
v 4 3.3 -2.4
v 4.7 3.3 1.7
v 4.7 3.3 -1.7
v 4.7 4.8 1.7
v 4.7 4.8 -1.7
v 4.7 4.9 1.7
v 4.7 4.9 -1.7
v 5.3 4.9 1.1
v 5.3 4.9 -1.1
v 5.3 6.4 1.1
v 5.3 6.4 -1.1
v 5.3 6.5 1.1
v 5.3 6.5 -1.1
v 5.6 0.1 0.8
v 5.6 0.1 -0.8
v 5.6 1.7 0.8
v 5.6 1.7 -0.8
v 5.7 6.5 0.7
v 5.7 6.5 -0.7
v 5.7 8 0.7
v 5.7 8 -0.7
v 5.7 8.1 0.7
v 5.7 8.1 -0.7
v 6 8.1 0.4
v 6 8.1 -0.4
v 6 9.6 0.4
v 6 9.6 -0.4
v 6 9.7 0.4
v 6 9.7 -0.4
v 6.8 8.1 0.4
v 6.8 8.1 -0.4
v 6.8 9.6 0.4
v 6.8 9.6 -0.4
v 6.8 9.7 0.4
v 6.8 9.7 -0.4
v 7.1 6.5 0.7
v 7.1 6.5 -0.7
v 7.1 8 0.7
v 7.1 8 -0.7
v 7.1 8.1 0.7
v 7.1 8.1 -0.7
v 7.2 0.1 0.8
v 7.2 0.1 -0.8
v 7.2 1.7 0.8
v 7.2 1.7 -0.8
v 7.5 4.9 1.1
v 7.5 4.9 -1.1
v 7.5 6.4 1.1
v 7.5 6.4 -1.1
v 7.5 6.5 1.1
v 7.5 6.5 -1.1
v 8.1 3.3 1.7
v 8.1 3.3 -1.7
v 8.1 4.8 1.7
v 8.1 4.8 -1.7
v 8.1 4.9 1.7
v 8.1 4.9 -1.7
v 8.8 1.7 2.4
v 8.8 1.7 -2.4
v 8.8 3.2 2.4
v 8.8 3.2 -2.4
v 8.8 3.3 2.4
v 8.8 3.3 -2.4
v 4 1.7 2.4
v 4 3.2 2.4
v 4 3.3 2.4
v 8.8 1.7 2.4
v 8.8 3.2 2.4
v 8.8 3.3 2.4
v 4.7 3.3 1.7
v 4.7 4.8 1.7
v 4.7 4.9 1.7
v 8.1 3.3 1.7
v 8.1 4.8 1.7
v 8.1 4.9 1.7
v 5.3 4.9 1.1
v 5.3 6.4 1.1
v 5.3 6.5 1.1
v 7.5 4.9 1.1
v 7.5 6.4 1.1
v 7.5 6.5 1.1
v 5.6 0.1 0.8
v 5.6 1.7 0.8
v 7.2 0.1 0.8
v 7.2 1.7 0.8
v 5.7 6.5 0.7
v 5.7 8 0.7
v 5.7 8.1 0.7
v 7.1 6.5 0.7
v 7.1 8 0.7
v 7.1 8.1 0.7
v 6 8.1 0.4
v 6 9.6 0.4
v 6 9.7 0.4
v 6.8 8.1 0.4
v 6.8 9.6 0.4
v 6.8 9.7 0.4
v 6 8.1 -0.4
v 6 9.6 -0.4
v 6 9.7 -0.4
v 6.8 8.1 -0.4
v 6.8 9.6 -0.4
v 6.8 9.7 -0.4
v 5.7 6.5 -0.7
v 5.7 8 -0.7
v 5.7 8.1 -0.7
v 7.1 6.5 -0.7
v 7.1 8 -0.7
v 7.1 8.1 -0.7
v 5.6 0.1 -0.8
v 5.6 1.7 -0.8
v 7.2 0.1 -0.8
v 7.2 1.7 -0.8
v 5.3 4.9 -1.1
v 5.3 6.4 -1.1
v 5.3 6.5 -1.1
v 7.5 4.9 -1.1
v 7.5 6.4 -1.1
v 7.5 6.5 -1.1
v 4.7 3.3 -1.7
v 4.7 4.8 -1.7
v 4.7 4.9 -1.7
v 8.1 3.3 -1.7
v 8.1 4.8 -1.7
v 8.1 4.9 -1.7
v 4 1.7 -2.4
v 4 3.2 -2.4
v 4 3.3 -2.4
v 8.8 1.7 -2.4
v 8.8 3.2 -2.4
v 8.8 3.3 -2.4
v 5.6 0.1 0.8
v 7.2 0.1 0.8
v 5.7 0.1 0.7
v 7.1 0.1 0.7
v 5.8 0.1 0.6
v 7 0.1 0.6
v 5.9 0.1 0.5
v 6.9 0.1 0.5
v 6 0.1 0.4
v 6.8 0.1 0.4
v 6.1 0.1 0.3
v 6.7 0.1 0.3
v 6.2 0.1 0.2
v 6.6 0.1 0.2
v 6.3 0.1 0.0999999
v 6.5 0.1 0.0999999
v 6.3 0.1 -0.1
v 6.5 0.1 -0.1
v 6.2 0.1 -0.2
v 6.6 0.1 -0.2
v 6.1 0.1 -0.3
v 6.7 0.1 -0.3
v 6 0.1 -0.4
v 6.8 0.1 -0.4
v 5.9 0.1 -0.5
v 6.9 0.1 -0.5
v 5.8 0.1 -0.6
v 7 0.1 -0.6
v 5.7 0.1 -0.7
v 7.1 0.1 -0.7
v 5.6 0.1 -0.8
v 7.2 0.1 -0.8
v 4 1.7 2.4
v 8.8 1.7 2.4
v 5.6 1.7 0.8
v 7.2 1.7 0.8
v 5.6 1.7 -0.8
v 7.2 1.7 -0.8
v 4 1.7 -2.4
v 8.8 1.7 -2.4
v 4 3.3 2.4
v 8.8 3.3 2.4
v 4.7 3.3 1.7
v 8.1 3.3 1.7
v 4.7 3.3 -1.7
v 8.1 3.3 -1.7
v 4 3.3 -2.4
v 8.8 3.3 -2.4
v 4.7 4.9 1.7
v 8.1 4.9 1.7
v 5.3 4.9 1.1
v 7.5 4.9 1.1
v 5.3 4.9 -1.1
v 7.5 4.9 -1.1
v 4.7 4.9 -1.7
v 8.1 4.9 -1.7
v 5.3 6.5 1.1
v 7.5 6.5 1.1
v 5.7 6.5 0.7
v 7.1 6.5 0.7
v 5.7 6.5 -0.7
v 7.1 6.5 -0.7
v 5.3 6.5 -1.1
v 7.5 6.5 -1.1
v 5.7 8.1 0.7
v 7.1 8.1 0.7
v 6 8.1 0.4
v 6.8 8.1 0.4
v 6 8.1 -0.4
v 6.8 8.1 -0.4
v 5.7 8.1 -0.7
v 7.1 8.1 -0.7
v 6 9.7 0.4
v 6.8 9.7 0.4
v 6 9.7 -0.4
v 6.8 9.7 -0.4

# faces base
f 21/3/1 20/3/1 19/3/1
f 22/3/1 20/3/1 21/3/1
f 47/3/2 48/3/2 49/3/2
f 49/3/2 48/3/2 50/3/2
f 89/3/3 88/3/3 87/3/3
f 90/3/3 88/3/3 89/3/3
f 115/3/4 116/3/4 117/3/4
f 117/3/4 116/3/4 118/3/4
f 139/3/5 138/3/5 137/3/5
f 140/3/5 138/3/5 139/3/5
f 141/2/5 140/2/5 139/2/5
f 142/2/5 140/2/5 141/2/5
f 143/4/5 142/4/5 141/4/5
f 144/4/5 142/4/5 143/4/5
f 145/3/5 144/3/5 143/3/5
f 146/3/5 144/3/5 145/3/5
f 147/2/5 146/2/5 145/2/5
f 148/2/5 146/2/5 147/2/5
f 149/4/5 148/4/5 147/4/5
f 150/4/5 148/4/5 149/4/5
f 151/3/5 150/3/5 149/3/5
f 152/3/5 150/3/5 151/3/5
f 153/3/5 151/3/5 149/3/5
f 153/2/5 152/2/5 151/2/5
f 154/3/5 150/3/5 152/3/5
f 154/2/5 152/2/5 153/2/5
f 155/4/5 149/4/5 147/4/5
f 155/3/5 153/3/5 149/3/5
f 155/3/5 154/3/5 153/3/5
f 156/3/5 150/3/5 154/3/5
f 156/3/5 154/3/5 155/3/5
f 156/4/5 148/4/5 150/4/5
f 157/2/5 147/2/5 145/2/5
f 157/4/5 155/4/5 147/4/5
f 157/4/5 156/4/5 155/4/5
f 158/4/5 148/4/5 156/4/5
f 158/4/5 156/4/5 157/4/5
f 158/2/5 146/2/5 148/2/5
f 159/3/5 145/3/5 143/3/5
f 159/2/5 157/2/5 145/2/5
f 159/2/5 158/2/5 157/2/5
f 160/2/5 146/2/5 158/2/5
f 160/2/5 158/2/5 159/2/5
f 160/3/5 144/3/5 146/3/5
f 161/4/5 143/4/5 141/4/5
f 161/3/5 159/3/5 143/3/5
f 161/3/5 160/3/5 159/3/5
f 162/3/5 144/3/5 160/3/5
f 162/3/5 160/3/5 161/3/5
f 162/4/5 142/4/5 144/4/5
f 163/2/5 141/2/5 139/2/5
f 163/4/5 161/4/5 141/4/5
f 163/4/5 162/4/5 161/4/5
f 164/4/5 142/4/5 162/4/5
f 164/4/5 162/4/5 163/4/5
f 164/2/5 140/2/5 142/2/5
f 165/3/5 139/3/5 137/3/5
f 165/2/5 163/2/5 139/2/5
f 165/2/5 164/2/5 163/2/5
f 166/2/5 140/2/5 164/2/5
f 166/2/5 164/2/5 165/2/5
f 166/3/5 138/3/5 140/3/5
f 167/3/5 165/3/5 137/3/5
f 167/3/5 166/3/5 165/3/5
f 168/3/5 138/3/5 166/3/5
f 168/3/5 166/3/5 167/3/5
