# MagicaVoxel @ Ephtracy

# group
o 

# material
mtllib Pine ver. 1.mtl
usemtl palette

# normals
vn -1 0 0
vn 1 0 0
vn 0 0 1
vn 0 0 -1
vn 0 -1 0
vn 0 1 0

# texcoords
vt 0.400391 0.5
vt 0.533203 0.5
vt 0.537109 0.5
vt 0.572266 0.5
vt 0.904297 0.5

# verts
v -2.4 2.6 2.4
v -2.4 2.6 -2.4
v -2.4 4.2 2.4
v -2.4 4.2 -2.4
v -1.7 4.2 1.7
v -1.7 4.2 -1.7
v -1.7 5.8 1.7
v -1.7 5.8 -1.7
v -1.1 5.8 1.1
v -1.1 5.8 -1.1
v -1.1 7.4 1.1
v -1.1 7.4 -1.1
v -0.8 1 0.8
v -0.8 1 -0.8
v -0.8 2.6 0.8
v -0.8 2.6 -0.8
v -0.7 7.4 0.7
v -0.7 7.4 -0.7
v -0.7 9 0.7
v -0.7 9 -0.7
v -0.4 9 0.4
v -0.4 9 -0.4
v -0.4 10.6 0.4
v -0.4 10.6 -0.4
v 0.4 9 0.4
v 0.4 9 -0.4
v 0.4 10.6 0.4
v 0.4 10.6 -0.4
v 0.7 7.4 0.7
v 0.7 7.4 -0.7
v 0.7 9 0.7
v 0.7 9 -0.7
v 0.8 1 0.8
v 0.8 1 -0.8
v 0.8 2.6 0.8
v 0.8 2.6 -0.8
v 1.1 5.8 1.1
v 1.1 5.8 -1.1
v 1.1 7.4 1.1
v 1.1 7.4 -1.1
v 1.7 4.2 1.7
v 1.7 4.2 -1.7
v 1.7 5.8 1.7
v 1.7 5.8 -1.7
v 2.4 2.6 2.4
v 2.4 2.6 -2.4
v 2.4 4.2 2.4
v 2.4 4.2 -2.4
v -2.4 2.6 2.4
v -2.4 4.2 2.4
v 2.4 2.6 2.4
v 2.4 4.2 2.4
v -1.7 4.2 1.7
v -1.7 5.8 1.7
v 1.7 4.2 1.7
v 1.7 5.8 1.7
v -1.1 5.8 1.1
v -1.1 7.4 1.1
v 1.1 5.8 1.1
v 1.1 7.4 1.1
v -0.8 1 0.8
v -0.8 2.6 0.8
v 0.8 1 0.8
v 0.8 2.6 0.8
v -0.7 7.4 0.7
v -0.7 9 0.7
v 0.7 7.4 0.7
v 0.7 9 0.7
v -0.4 9 0.4
v -0.4 10.6 0.4
v 0.4 9 0.4
v 0.4 10.6 0.4
v -0.4 9 -0.4
v -0.4 10.6 -0.4
v 0.4 9 -0.4
v 0.4 10.6 -0.4
v -0.7 7.4 -0.7
v -0.7 9 -0.7
v 0.7 7.4 -0.7
v 0.7 9 -0.7
v -0.8 1 -0.8
v -0.8 2.6 -0.8
v 0.8 1 -0.8
v 0.8 2.6 -0.8
v -1.1 5.8 -1.1
v -1.1 7.4 -1.1
v 1.1 5.8 -1.1
v 1.1 7.4 -1.1
v -1.7 4.2 -1.7
v -1.7 5.8 -1.7
v 1.7 4.2 -1.7
v 1.7 5.8 -1.7
v -2.4 2.6 -2.4
v -2.4 4.2 -2.4
v 2.4 2.6 -2.4
v 2.4 4.2 -2.4
v -0.8 1 0.8
v 0.8 1 0.8
v -0.7 1 0.7
v 0.7 1 0.7
v -0.6 1 0.6
v 0.6 1 0.6
v -0.5 1 0.5
v 0.5 1 0.5
v -0.4 1 0.4
v 0.4 1 0.4
v -0.3 1 0.3
v 0.3 1 0.3
v -0.2 1 0.2
v 0.2 1 0.2
v -0.0999999 1 0.0999999
v 0.1 1 0.0999999
v -0.0999999 1 -0.1
v 0.1 1 -0.1
v -0.2 1 -0.2
v 0.2 1 -0.2
v -0.3 1 -0.3
v 0.3 1 -0.3
v -0.4 1 -0.4
v 0.4 1 -0.4
v -0.5 1 -0.5
v 0.5 1 -0.5
v -0.6 1 -0.6
v 0.6 1 -0.6
v -0.7 1 -0.7
v 0.7 1 -0.7
v -0.8 1 -0.8
v 0.8 1 -0.8
v -2.4 2.6 2.4
v 2.4 2.6 2.4
v -0.8 2.6 0.8
v 0.8 2.6 0.8
v -0.8 2.6 -0.8
v 0.8 2.6 -0.8
v -2.4 2.6 -2.4
v 2.4 2.6 -2.4
v -2.4 4.2 2.4
v 2.4 4.2 2.4
v -1.7 4.2 1.7
v 1.7 4.2 1.7
v -1.7 4.2 -1.7
v 1.7 4.2 -1.7
v -2.4 4.2 -2.4
v 2.4 4.2 -2.4
v -1.7 5.8 1.7
v 1.7 5.8 1.7
v -1.1 5.8 1.1
v 1.1 5.8 1.1
v -1.1 5.8 -1.1
v 1.1 5.8 -1.1
v -1.7 5.8 -1.7
v 1.7 5.8 -1.7
v -1.1 7.4 1.1
v 1.1 7.4 1.1
v -0.7 7.4 0.7
v 0.7 7.4 0.7
v -0.7 7.4 -0.7
v 0.7 7.4 -0.7
v -1.1 7.4 -1.1
v 1.1 7.4 -1.1
v -0.7 9 0.7
v 0.7 9 0.7
v -0.4 9 0.4
v 0.4 9 0.4
v -0.4 9 -0.4
v 0.4 9 -0.4
v -0.7 9 -0.7
v 0.7 9 -0.7
v -0.4 10.6 0.4
v 0.4 10.6 0.4
v -0.4 10.6 -0.4
v 0.4 10.6 -0.4

# faces
f 3/5/1 2/5/1 1/5/1
f 4/5/1 2/5/1 3/5/1
f 7/5/1 6/5/1 5/5/1
f 8/5/1 6/5/1 7/5/1
f 11/5/1 10/5/1 9/5/1
f 12/5/1 10/5/1 11/5/1
f 19/5/1 18/5/1 17/5/1
f 20/5/1 18/5/1 19/5/1
f 23/5/1 22/5/1 21/5/1
f 24/5/1 22/5/1 23/5/1
f 25/5/2 26/5/2 27/5/2
f 27/5/2 26/5/2 28/5/2
f 29/5/2 30/5/2 31/5/2
f 31/5/2 30/5/2 32/5/2
f 37/5/2 38/5/2 39/5/2
f 39/5/2 38/5/2 40/5/2
f 41/5/2 42/5/2 43/5/2
f 43/5/2 42/5/2 44/5/2
f 45/5/2 46/5/2 47/5/2
f 47/5/2 46/5/2 48/5/2
f 51/5/3 50/5/3 49/5/3
f 52/5/3 50/5/3 51/5/3
f 55/5/3 54/5/3 53/5/3
f 56/5/3 54/5/3 55/5/3
f 59/5/3 58/5/3 57/5/3
f 60/5/3 58/5/3 59/5/3
f 67/5/3 66/5/3 65/5/3
f 68/5/3 66/5/3 67/5/3
f 71/5/3 70/5/3 69/5/3
f 72/5/3 70/5/3 71/5/3
f 73/5/4 74/5/4 75/5/4
f 75/5/4 74/5/4 76/5/4
f 77/5/4 78/5/4 79/5/4
f 79/5/4 78/5/4 80/5/4
f 85/5/4 86/5/4 87/5/4
f 87/5/4 86/5/4 88/5/4
f 89/5/4 90/5/4 91/5/4
f 91/5/4 90/5/4 92/5/4
f 93/5/4 94/5/4 95/5/4
f 95/5/4 94/5/4 96/5/4
f 131/5/5 130/5/5 129/5/5
f 132/5/5 130/5/5 131/5/5
f 133/5/5 131/5/5 129/5/5
f 134/5/5 130/5/5 132/5/5
f 135/5/5 133/5/5 129/5/5
f 135/5/5 134/5/5 133/5/5
f 136/5/5 130/5/5 134/5/5
f 136/5/5 134/5/5 135/5/5
f 137/5/6 138/5/6 139/5/6
f 139/5/6 138/5/6 140/5/6
f 137/5/6 139/5/6 141/5/6
f 140/5/6 138/5/6 142/5/6
f 137/5/6 141/5/6 143/5/6
f 141/5/6 142/5/6 143/5/6
f 142/5/6 138/5/6 144/5/6
f 143/5/6 142/5/6 144/5/6
f 145/5/6 146/5/6 147/5/6
f 147/5/6 146/5/6 148/5/6
f 145/5/6 147/5/6 149/5/6
f 148/5/6 146/5/6 150/5/6
f 145/5/6 149/5/6 151/5/6
f 149/5/6 150/5/6 151/5/6
f 150/5/6 146/5/6 152/5/6
f 151/5/6 150/5/6 152/5/6
f 153/5/6 154/5/6 155/5/6
f 155/5/6 154/5/6 156/5/6
f 153/5/6 155/5/6 157/5/6
f 156/5/6 154/5/6 158/5/6
f 153/5/6 157/5/6 159/5/6
f 157/5/6 158/5/6 159/5/6
f 158/5/6 154/5/6 160/5/6
f 159/5/6 158/5/6 160/5/6
f 161/5/6 162/5/6 163/5/6
f 163/5/6 162/5/6 164/5/6
f 161/5/6 163/5/6 165/5/6
f 164/5/6 162/5/6 166/5/6
f 161/5/6 165/5/6 167/5/6
f 165/5/6 166/5/6 167/5/6
f 166/5/6 162/5/6 168/5/6
f 167/5/6 166/5/6 168/5/6
f 169/5/6 170/5/6 171/5/6
f 171/5/6 170/5/6 172/5/6
