# MagicaVoxel @ Ephtracy

# group
o 

# material
mtllib Pine wood.mtl
usemtl palette

# normals
vn -1 0 0
vn 1 0 0
vn 0 0 1
vn 0 0 -1
vn 0 -1 0
vn 0 1 0

# texcoords
vt 0.533203 0.5
vt 0.537109 0.5
vt 0.572266 0.5

# verts
v -6.9 1.2 1.5
v -6.9 1.2 -1.6
v -6.9 2.2 1.5
v -6.9 2.2 -1.6
v -5.9 1.2 1.5
v -5.9 1.2 -1.6
v -5.9 2.2 1.5
v -5.9 2.2 -1.6
v -6.9 1.2 1.5
v -6.9 2.2 1.5
v -6.8 1.3 1.5
v -6.8 2.1 1.5
v -6.7 1.4 1.5
v -6.7 2 1.5
v -6.6 1.5 1.5
v -6.6 1.9 1.5
v -6.5 1.6 1.5
v -6.5 1.8 1.5
v -6.3 1.6 1.5
v -6.3 1.8 1.5
v -6.2 1.5 1.5
v -6.2 1.9 1.5
v -6.1 1.4 1.5
v -6.1 2 1.5
v -6 1.3 1.5
v -6 2.1 1.5
v -5.9 1.2 1.5
v -5.9 2.2 1.5
v -6.9 1.2 -1.6
v -6.9 2.2 -1.6
v -6.8 1.3 -1.6
v -6.8 2.1 -1.6
v -6.7 1.4 -1.6
v -6.7 2 -1.6
v -6.6 1.5 -1.6
v -6.6 1.9 -1.6
v -6.5 1.6 -1.6
v -6.5 1.8 -1.6
v -6.3 1.6 -1.6
v -6.3 1.8 -1.6
v -6.2 1.5 -1.6
v -6.2 1.9 -1.6
v -6.1 1.4 -1.6
v -6.1 2 -1.6
v -6 1.3 -1.6
v -6 2.1 -1.6
v -5.9 1.2 -1.6
v -5.9 2.2 -1.6
v -6.9 1.2 1.5
v -5.9 1.2 1.5
v -6.9 1.2 -1.6
v -5.9 1.2 -1.6
v -6.9 2.2 1.5
v -5.9 2.2 1.5
v -6.9 2.2 -1.6
v -5.9 2.2 -1.6

# faces partes mas cafes
f 13/1/3 12/1/3 11/1/3
f 14/1/3 12/1/3 13/1/3
f 15/3/3 14/3/3 13/3/3
f 16/3/3 14/3/3 15/3/3
f 19/1/3 18/1/3 17/1/3
f 20/1/3 18/1/3 19/1/3
f 21/3/3 15/3/3 13/3/3
f 22/3/3 14/3/3 16/3/3
f 23/1/3 13/1/3 11/1/3
f 23/3/3 21/3/3 13/3/3
f 23/3/3 22/3/3 21/3/3
f 24/3/3 14/3/3 22/3/3
f 24/3/3 22/3/3 23/3/3
f 24/1/3 12/1/3 14/1/3
f 25/1/3 23/1/3 11/1/3
f 25/1/3 24/1/3 23/1/3
f 26/1/3 12/1/3 24/1/3
f 26/1/3 24/1/3 25/1/3
f 31/1/4 32/1/4 33/1/4
f 33/1/4 32/1/4 34/1/4
f 33/3/4 34/3/4 35/3/4
f 35/3/4 34/3/4 36/3/4
f 37/1/4 38/1/4 39/1/4
f 39/1/4 38/1/4 40/1/4
f 33/3/4 35/3/4 41/3/4
f 36/3/4 34/3/4 42/3/4
f 31/1/4 33/1/4 43/1/4
f 33/3/4 41/3/4 43/3/4
f 41/3/4 42/3/4 43/3/4
f 42/3/4 34/3/4 44/3/4
f 43/3/4 42/3/4 44/3/4
f 34/1/4 32/1/4 44/1/4
f 31/1/4 43/1/4 45/1/4
f 43/1/4 44/1/4 45/1/4
f 44/1/4 32/1/4 46/1/4
f 45/1/4 44/1/4 46/1/4