# MagicaVoxel @ Ephtracy

# group
o 

# material
mtllib Pine ver. 2.mtl
usemtl palette

# normals
vn -1 0 0
vn 1 0 0
vn 0 0 1
vn 0 0 -1
vn 0 -1 0
vn 0 1 0

# texcoords
vt 0.400391 0.5
vt 0.533203 0.5
vt 0.537109 0.5
vt 0.572266 0.5
vt 0.904297 0.5
vt 0.966797 0.5

# verts
v 4 1.7 2.4
v 4 1.7 -2.4
v 4 3.2 2.4
v 4 3.2 -2.4
v 4 3.3 2.4
v 4 3.3 -2.4
v 4.7 3.3 1.7
v 4.7 3.3 -1.7
v 4.7 4.8 1.7
v 4.7 4.8 -1.7
v 4.7 4.9 1.7
v 4.7 4.9 -1.7
v 5.3 4.9 1.1
v 5.3 4.9 -1.1
v 5.3 6.4 1.1
v 5.3 6.4 -1.1
v 5.3 6.5 1.1
v 5.3 6.5 -1.1
v 5.6 0.1 0.8
v 5.6 0.1 -0.8
v 5.6 1.7 0.8
v 5.6 1.7 -0.8
v 5.7 6.5 0.7
v 5.7 6.5 -0.7
v 5.7 8 0.7
v 5.7 8 -0.7
v 5.7 8.1 0.7
v 5.7 8.1 -0.7
v 6 8.1 0.4
v 6 8.1 -0.4
v 6 9.6 0.4
v 6 9.6 -0.4
v 6 9.7 0.4
v 6 9.7 -0.4
v 6.8 8.1 0.4
v 6.8 8.1 -0.4
v 6.8 9.6 0.4
v 6.8 9.6 -0.4
v 6.8 9.7 0.4
v 6.8 9.7 -0.4
v 7.1 6.5 0.7
v 7.1 6.5 -0.7
v 7.1 8 0.7
v 7.1 8 -0.7
v 7.1 8.1 0.7
v 7.1 8.1 -0.7
v 7.2 0.1 0.8
v 7.2 0.1 -0.8
v 7.2 1.7 0.8
v 7.2 1.7 -0.8
v 7.5 4.9 1.1
v 7.5 4.9 -1.1
v 7.5 6.4 1.1
v 7.5 6.4 -1.1
v 7.5 6.5 1.1
v 7.5 6.5 -1.1
v 8.1 3.3 1.7
v 8.1 3.3 -1.7
v 8.1 4.8 1.7
v 8.1 4.8 -1.7
v 8.1 4.9 1.7
v 8.1 4.9 -1.7
v 8.8 1.7 2.4
v 8.8 1.7 -2.4
v 8.8 3.2 2.4
v 8.8 3.2 -2.4
v 8.8 3.3 2.4
v 8.8 3.3 -2.4
v 4 1.7 2.4
v 4 3.2 2.4
v 4 3.3 2.4
v 8.8 1.7 2.4
v 8.8 3.2 2.4
v 8.8 3.3 2.4
v 4.7 3.3 1.7
v 4.7 4.8 1.7
v 4.7 4.9 1.7
v 8.1 3.3 1.7
v 8.1 4.8 1.7
v 8.1 4.9 1.7
v 5.3 4.9 1.1
v 5.3 6.4 1.1
v 5.3 6.5 1.1
v 7.5 4.9 1.1
v 7.5 6.4 1.1
v 7.5 6.5 1.1
v 5.6 0.1 0.8
v 5.6 1.7 0.8
v 7.2 0.1 0.8
v 7.2 1.7 0.8
v 5.7 6.5 0.7
v 5.7 8 0.7
v 5.7 8.1 0.7
v 7.1 6.5 0.7
v 7.1 8 0.7
v 7.1 8.1 0.7
v 6 8.1 0.4
v 6 9.6 0.4
v 6 9.7 0.4
v 6.8 8.1 0.4
v 6.8 9.6 0.4
v 6.8 9.7 0.4
v 6 8.1 -0.4
v 6 9.6 -0.4
v 6 9.7 -0.4
v 6.8 8.1 -0.4
v 6.8 9.6 -0.4
v 6.8 9.7 -0.4
v 5.7 6.5 -0.7
v 5.7 8 -0.7
v 5.7 8.1 -0.7
v 7.1 6.5 -0.7
v 7.1 8 -0.7
v 7.1 8.1 -0.7
v 5.6 0.1 -0.8
v 5.6 1.7 -0.8
v 7.2 0.1 -0.8
v 7.2 1.7 -0.8
v 5.3 4.9 -1.1
v 5.3 6.4 -1.1
v 5.3 6.5 -1.1
v 7.5 4.9 -1.1
v 7.5 6.4 -1.1
v 7.5 6.5 -1.1
v 4.7 3.3 -1.7
v 4.7 4.8 -1.7
v 4.7 4.9 -1.7
v 8.1 3.3 -1.7
v 8.1 4.8 -1.7
v 8.1 4.9 -1.7
v 4 1.7 -2.4
v 4 3.2 -2.4
v 4 3.3 -2.4
v 8.8 1.7 -2.4
v 8.8 3.2 -2.4
v 8.8 3.3 -2.4
v 5.6 0.1 0.8
v 7.2 0.1 0.8
v 5.7 0.1 0.7
v 7.1 0.1 0.7
v 5.8 0.1 0.6
v 7 0.1 0.6
v 5.9 0.1 0.5
v 6.9 0.1 0.5
v 6 0.1 0.4
v 6.8 0.1 0.4
v 6.1 0.1 0.3
v 6.7 0.1 0.3
v 6.2 0.1 0.2
v 6.6 0.1 0.2
v 6.3 0.1 0.0999999
v 6.5 0.1 0.0999999
v 6.3 0.1 -0.1
v 6.5 0.1 -0.1
v 6.2 0.1 -0.2
v 6.6 0.1 -0.2
v 6.1 0.1 -0.3
v 6.7 0.1 -0.3
v 6 0.1 -0.4
v 6.8 0.1 -0.4
v 5.9 0.1 -0.5
v 6.9 0.1 -0.5
v 5.8 0.1 -0.6
v 7 0.1 -0.6
v 5.7 0.1 -0.7
v 7.1 0.1 -0.7
v 5.6 0.1 -0.8
v 7.2 0.1 -0.8
v 4 1.7 2.4
v 8.8 1.7 2.4
v 5.6 1.7 0.8
v 7.2 1.7 0.8
v 5.6 1.7 -0.8
v 7.2 1.7 -0.8
v 4 1.7 -2.4
v 8.8 1.7 -2.4
v 4 3.3 2.4
v 8.8 3.3 2.4
v 4.7 3.3 1.7
v 8.1 3.3 1.7
v 4.7 3.3 -1.7
v 8.1 3.3 -1.7
v 4 3.3 -2.4
v 8.8 3.3 -2.4
v 4.7 4.9 1.7
v 8.1 4.9 1.7
v 5.3 4.9 1.1
v 7.5 4.9 1.1
v 5.3 4.9 -1.1
v 7.5 4.9 -1.1
v 4.7 4.9 -1.7
v 8.1 4.9 -1.7
v 5.3 6.5 1.1
v 7.5 6.5 1.1
v 5.7 6.5 0.7
v 7.1 6.5 0.7
v 5.7 6.5 -0.7
v 7.1 6.5 -0.7
v 5.3 6.5 -1.1
v 7.5 6.5 -1.1
v 5.7 8.1 0.7
v 7.1 8.1 0.7
v 6 8.1 0.4
v 6.8 8.1 0.4
v 6 8.1 -0.4
v 6.8 8.1 -0.4
v 5.7 8.1 -0.7
v 7.1 8.1 -0.7
v 6 9.7 0.4
v 6.8 9.7 0.4
v 6 9.7 -0.4
v 6.8 9.7 -0.4

# faces nieve
f 5/6/1 4/6/1 3/6/1
f 6/6/1 4/6/1 5/6/1
f 11/6/1 10/6/1 9/6/1
f 12/6/1 10/6/1 11/6/1
f 17/6/1 16/6/1 15/6/1
f 18/6/1 16/6/1 17/6/1
f 27/6/1 26/6/1 25/6/1
f 28/6/1 26/6/1 27/6/1
f 33/6/1 32/6/1 31/6/1
f 34/6/1 32/6/1 33/6/1
f 37/6/2 38/6/2 39/6/2
f 39/6/2 38/6/2 40/6/2
f 43/6/2 44/6/2 45/6/2
f 45/6/2 44/6/2 46/6/2
f 53/6/2 54/6/2 55/6/2
f 55/6/2 54/6/2 56/6/2
f 59/6/2 60/6/2 61/6/2
f 61/6/2 60/6/2 62/6/2
f 65/6/2 66/6/2 67/6/2
f 67/6/2 66/6/2 68/6/2
f 73/6/3 71/6/3 70/6/3
f 74/6/3 71/6/3 73/6/3
f 79/6/3 77/6/3 76/6/3
f 80/6/3 77/6/3 79/6/3
f 85/6/3 83/6/3 82/6/3
f 86/6/3 83/6/3 85/6/3
f 95/6/3 93/6/3 92/6/3
f 96/6/3 93/6/3 95/6/3
f 101/6/3 99/6/3 98/6/3
f 102/6/3 99/6/3 101/6/3
f 104/6/4 105/6/4 107/6/4
f 107/6/4 105/6/4 108/6/4
f 110/6/4 111/6/4 113/6/4
f 113/6/4 111/6/4 114/6/4
f 120/6/4 121/6/4 123/6/4
f 123/6/4 121/6/4 124/6/4
f 126/6/4 127/6/4 129/6/4
f 129/6/4 127/6/4 130/6/4
f 132/6/4 133/6/4 135/6/4
f 135/6/4 133/6/4 136/6/4
f 177/6/6 178/6/6 179/6/6
f 179/6/6 178/6/6 180/6/6
f 177/6/6 179/6/6 181/6/6
f 180/6/6 178/6/6 182/6/6
f 177/6/6 181/6/6 183/6/6
f 181/6/6 182/6/6 183/6/6
f 182/6/6 178/6/6 184/6/6
f 183/6/6 182/6/6 184/6/6
f 185/6/6 186/6/6 187/6/6
f 187/6/6 186/6/6 188/6/6
f 185/6/6 187/6/6 189/6/6
f 188/6/6 186/6/6 190/6/6
f 185/6/6 189/6/6 191/6/6
f 189/6/6 190/6/6 191/6/6
f 190/6/6 186/6/6 192/6/6
f 191/6/6 190/6/6 192/6/6
f 193/6/6 194/6/6 195/6/6
f 195/6/6 194/6/6 196/6/6
f 193/6/6 195/6/6 197/6/6
f 196/6/6 194/6/6 198/6/6
f 193/6/6 197/6/6 199/6/6
f 197/6/6 198/6/6 199/6/6
f 198/6/6 194/6/6 200/6/6
f 199/6/6 198/6/6 200/6/6
f 201/6/6 202/6/6 203/6/6
f 203/6/6 202/6/6 204/6/6
f 201/6/6 203/6/6 205/6/6
f 204/6/6 202/6/6 206/6/6
f 201/6/6 205/6/6 207/6/6
f 205/6/6 206/6/6 207/6/6
f 206/6/6 202/6/6 208/6/6
f 207/6/6 206/6/6 208/6/6
f 209/6/6 210/6/6 211/6/6
f 211/6/6 210/6/6 212/6/6