# MagicaVoxel @ Ephtracy

# group
o 

# material
mtllib Fence Gate (Right Part) ver.1.mtl
usemtl palette

# normals
vn -1 0 0
vn 1 0 0
vn 0 0 1
vn 0 0 -1
vn 0 -1 0
vn 0 1 0

# texcoords
vt 0.533203 0.5
vt 0.537109 0.5

# verts
v -8.9 1.4 -15.4
v -8.9 1.4 -15.5
v -8.9 1.8 -15.4
v -8.9 1.8 -15.5
v -8.9 2.2 -15.4
v -8.9 2.2 -15.5
v -8.9 2.6 -15.4
v -8.9 2.6 -15.5
v -8.4 0.7 -15.1
v -8.4 0.7 -15.4
v -8.4 1.4 -15.4
v -8.4 1.8 -15.4
v -8.4 2.2 -15.4
v -8.4 2.6 -15.4
v -8.4 2.7 -15.1
v -8.4 2.7 -15.4
v -7.6 0.7 -15.3
v -7.6 0.7 -15.6
v -7.6 1.4 -15.4
v -7.6 1.4 -15.5
v -7.6 1.8 -15.4
v -7.6 1.8 -15.5
v -7.6 2.2 -15.4
v -7.6 2.2 -15.5
v -7.6 2.6 -15.4
v -7.6 2.6 -15.5
v -7.6 2.7 -15.3
v -7.6 2.7 -15.6
v -8.1 0.7 -15.1
v -8.1 0.7 -15.4
v -8.1 1.4 -15.4
v -8.1 1.8 -15.4
v -8.1 2.2 -15.4
v -8.1 2.6 -15.4
v -8.1 2.7 -15.1
v -8.1 2.7 -15.4
v -7.5 0.7 -15.3
v -7.5 0.7 -15.6
v -7.5 1.5 -15.4
v -7.5 1.5 -15.5
v -7.5 1.7 -15.4
v -7.5 1.7 -15.5
v -7.5 2.3 -15.4
v -7.5 2.3 -15.5
v -7.5 2.5 -15.4
v -7.5 2.5 -15.5
v -7.5 2.7 -15.3
v -7.5 2.7 -15.6
v -7.4 1.5 -15.4
v -7.4 1.5 -15.5
v -7.4 1.7 -15.4
v -7.4 1.7 -15.5
v -7.4 2.3 -15.4
v -7.4 2.3 -15.5
v -7.4 2.5 -15.4
v -7.4 2.5 -15.5
v -8.4 0.7 -15.1
v -8.4 2.7 -15.1
v -8.1 0.7 -15.1
v -8.1 2.7 -15.1
v -7.6 0.7 -15.3
v -7.6 2.7 -15.3
v -7.5 0.7 -15.3
v -7.5 2.7 -15.3
v -8.9 1.4 -15.4
v -8.9 1.8 -15.4
v -8.9 2.2 -15.4
v -8.9 2.6 -15.4
v -8.4 1.4 -15.4
v -8.4 1.8 -15.4
v -8.4 2.2 -15.4
v -8.4 2.6 -15.4
v -8.1 1.4 -15.4
v -8.1 1.8 -15.4
v -8.1 2.2 -15.4
v -8.1 2.6 -15.4
v -7.6 1.4 -15.4
v -7.6 1.8 -15.4
v -7.6 2.2 -15.4
v -7.6 2.6 -15.4
v -7.5 1.5 -15.4
v -7.5 1.7 -15.4
v -7.5 2.3 -15.4
v -7.5 2.5 -15.4
v -7.4 1.5 -15.4
v -7.4 1.7 -15.4
v -7.4 2.3 -15.4
v -7.4 2.5 -15.4
v -8.4 0.7 -15.4
v -8.4 1.4 -15.4
v -8.4 1.8 -15.4
v -8.4 2.2 -15.4
v -8.4 2.6 -15.4
v -8.4 2.7 -15.4
v -8.1 0.7 -15.4
v -8.1 1.4 -15.4
v -8.1 1.8 -15.4
v -8.1 2.2 -15.4
v -8.1 2.6 -15.4
v -8.1 2.7 -15.4
v -8.9 1.4 -15.5
v -8.9 1.8 -15.5
v -8.9 2.2 -15.5
v -8.9 2.6 -15.5
v -7.6 1.4 -15.5
v -7.6 1.8 -15.5
v -7.6 2.2 -15.5
v -7.6 2.6 -15.5
v -7.5 1.5 -15.5
v -7.5 1.7 -15.5
v -7.5 2.3 -15.5
v -7.5 2.5 -15.5
v -7.4 1.5 -15.5
v -7.4 1.7 -15.5
v -7.4 2.3 -15.5
v -7.4 2.5 -15.5
v -7.6 0.7 -15.6
v -7.6 2.7 -15.6
v -7.5 0.7 -15.6
v -7.5 2.7 -15.6
v -8.4 0.7 -15.1
v -8.1 0.7 -15.1
v -7.6 0.7 -15.3
v -7.5 0.7 -15.3
v -8.4 0.7 -15.4
v -8.1 0.7 -15.4
v -7.6 0.7 -15.6
v -7.5 0.7 -15.6
v -8.9 1.4 -15.4
v -8.4 1.4 -15.4
v -8.1 1.4 -15.4
v -7.6 1.4 -15.4
v -8.9 1.4 -15.5
v -7.6 1.4 -15.5
v -7.5 1.5 -15.4
v -7.4 1.5 -15.4
v -7.5 1.5 -15.5
v -7.4 1.5 -15.5
v -8.9 2.2 -15.4
v -8.4 2.2 -15.4
v -8.1 2.2 -15.4
v -7.6 2.2 -15.4
v -8.9 2.2 -15.5
v -7.6 2.2 -15.5
v -7.5 2.3 -15.4
v -7.4 2.3 -15.4
v -7.5 2.3 -15.5
v -7.4 2.3 -15.5
v -7.5 1.7 -15.4
v -7.4 1.7 -15.4
v -7.5 1.7 -15.5
v -7.4 1.7 -15.5
v -8.9 1.8 -15.4
v -8.4 1.8 -15.4
v -8.1 1.8 -15.4
v -7.6 1.8 -15.4
v -8.9 1.8 -15.5
v -7.6 1.8 -15.5
v -7.5 2.5 -15.4
v -7.4 2.5 -15.4
v -7.5 2.5 -15.5
v -7.4 2.5 -15.5
v -8.9 2.6 -15.4
v -8.4 2.6 -15.4
v -8.1 2.6 -15.4
v -7.6 2.6 -15.4
v -8.9 2.6 -15.5
v -7.6 2.6 -15.5
v -8.4 2.7 -15.1
v -8.1 2.7 -15.1
v -7.6 2.7 -15.3
v -7.5 2.7 -15.3
v -8.4 2.7 -15.4
v -8.1 2.7 -15.4
v -7.6 2.7 -15.6
v -7.5 2.7 -15.6

# faces
f 3/1/1 2/1/1 1/1/1
f 4/1/1 2/1/1 3/1/1
f 7/1/1 6/1/1 5/1/1
f 8/1/1 6/1/1 7/1/1
f 49/1/2 50/1/2 51/1/2
f 51/1/2 50/1/2 52/1/2
f 53/1/2 54/1/2 55/1/2
f 55/1/2 54/1/2 56/1/2
f 69/1/3 66/1/3 65/1/3
f 70/1/3 66/1/3 69/1/3
f 71/1/3 68/1/3 67/1/3
f 72/1/3 68/1/3 71/1/3
f 77/1/3 74/1/3 73/1/3
f 78/1/3 74/1/3 77/1/3
f 79/1/3 76/1/3 75/1/3
f 80/1/3 76/1/3 79/1/3
f 85/1/3 82/1/3 81/1/3
f 86/1/3 82/1/3 85/1/3
f 87/1/3 84/1/3 83/1/3
f 88/1/3 84/1/3 87/1/3
f 101/1/4 102/1/4 105/1/4
f 105/1/4 102/1/4 106/1/4
f 103/1/4 104/1/4 107/1/4
f 107/1/4 104/1/4 108/1/4
f 109/1/4 110/1/4 113/1/4
f 113/1/4 110/1/4 114/1/4
f 111/1/4 112/1/4 115/1/4
f 115/1/4 112/1/4 116/1/4
f 133/1/5 130/1/5 129/1/5
f 133/1/5 132/1/5 131/1/5
f 133/1/5 131/1/5 130/1/5
f 134/1/5 132/1/5 133/1/5
f 137/1/5 136/1/5 135/1/5
f 138/1/5 136/1/5 137/1/5
f 143/1/5 140/1/5 139/1/5
f 143/1/5 142/1/5 141/1/5
f 143/1/5 141/1/5 140/1/5
f 144/1/5 142/1/5 143/1/5
f 147/1/5 146/1/5 145/1/5
f 148/1/5 146/1/5 147/1/5
f 149/1/6 150/1/6 151/1/6
f 151/1/6 150/1/6 152/1/6
f 153/1/6 154/1/6 157/1/6
f 155/1/6 156/1/6 157/1/6
f 154/1/6 155/1/6 157/1/6
f 157/1/6 156/1/6 158/1/6
f 159/1/6 160/1/6 161/1/6
f 161/1/6 160/1/6 162/1/6
f 163/1/6 164/1/6 167/1/6
f 165/1/6 166/1/6 167/1/6
f 164/1/6 165/1/6 167/1/6
f 167/1/6 166/1/6 168/1/6