# MagicaVoxel @ Ephtracy

# group
o 

# material
mtllib Fence Gate (Left Part) ver. 1.mtl
usemtl palette

# normals
vn -1 0 0
vn 1 0 0
vn 0 0 1
vn 0 0 -1
vn 0 -1 0
vn 0 1 0

# texcoords
vt 0.533203 0.5
vt 0.537109 0.5

# verts
v -4.8 1.5 -15.6
v -4.8 1.5 -15.7
v -4.8 1.7 -15.6
v -4.8 1.7 -15.7
v -4.8 2.3 -15.6
v -4.8 2.3 -15.7
v -4.8 2.5 -15.6
v -4.8 2.5 -15.7
v -4.7 0.7 -15.5
v -4.7 0.7 -15.8
v -4.7 1.5 -15.6
v -4.7 1.5 -15.7
v -4.7 1.7 -15.6
v -4.7 1.7 -15.7
v -4.7 2.3 -15.6
v -4.7 2.3 -15.7
v -4.7 2.5 -15.6
v -4.7 2.5 -15.7
v -4.7 2.7 -15.5
v -4.7 2.7 -15.8
v -4.1 0.7 -15.3
v -4.1 0.7 -15.6
v -4.1 1.4 -15.6
v -4.1 1.8 -15.6
v -4.1 2.2 -15.6
v -4.1 2.6 -15.6
v -4.1 2.7 -15.3
v -4.1 2.7 -15.6
v -4.6 0.7 -15.5
v -4.6 0.7 -15.8
v -4.6 1.4 -15.6
v -4.6 1.4 -15.7
v -4.6 1.8 -15.6
v -4.6 1.8 -15.7
v -4.6 2.2 -15.6
v -4.6 2.2 -15.7
v -4.6 2.6 -15.6
v -4.6 2.6 -15.7
v -4.6 2.7 -15.5
v -4.6 2.7 -15.8
v -3.8 0.7 -15.3
v -3.8 0.7 -15.6
v -3.8 1.4 -15.6
v -3.8 1.8 -15.6
v -3.8 2.2 -15.6
v -3.8 2.6 -15.6
v -3.8 2.7 -15.3
v -3.8 2.7 -15.6
v -3.3 1.4 -15.6
v -3.3 1.4 -15.7
v -3.3 1.8 -15.6
v -3.3 1.8 -15.7
v -3.3 2.2 -15.6
v -3.3 2.2 -15.7
v -3.3 2.6 -15.6
v -3.3 2.6 -15.7
v -4.1 0.7 -15.3
v -4.1 2.7 -15.3
v -3.8 0.7 -15.3
v -3.8 2.7 -15.3
v -4.7 0.7 -15.5
v -4.7 2.7 -15.5
v -4.6 0.7 -15.5
v -4.6 2.7 -15.5
v -4.8 1.5 -15.6
v -4.8 1.7 -15.6
v -4.8 2.3 -15.6
v -4.8 2.5 -15.6
v -4.7 1.5 -15.6
v -4.7 1.7 -15.6
v -4.7 2.3 -15.6
v -4.7 2.5 -15.6
v -4.6 1.4 -15.6
v -4.6 1.8 -15.6
v -4.6 2.2 -15.6
v -4.6 2.6 -15.6
v -4.1 1.4 -15.6
v -4.1 1.8 -15.6
v -4.1 2.2 -15.6
v -4.1 2.6 -15.6
v -3.8 1.4 -15.6
v -3.8 1.8 -15.6
v -3.8 2.2 -15.6
v -3.8 2.6 -15.6
v -3.3 1.4 -15.6
v -3.3 1.8 -15.6
v -3.3 2.2 -15.6
v -3.3 2.6 -15.6
v -4.1 0.7 -15.6
v -4.1 1.4 -15.6
v -4.1 1.8 -15.6
v -4.1 2.2 -15.6
v -4.1 2.6 -15.6
v -4.1 2.7 -15.6
v -3.8 0.7 -15.6
v -3.8 1.4 -15.6
v -3.8 1.8 -15.6
v -3.8 2.2 -15.6
v -3.8 2.6 -15.6
v -3.8 2.7 -15.6
v -4.8 1.5 -15.7
v -4.8 1.7 -15.7
v -4.8 2.3 -15.7
v -4.8 2.5 -15.7
v -4.7 1.5 -15.7
v -4.7 1.7 -15.7
v -4.7 2.3 -15.7
v -4.7 2.5 -15.7
v -4.6 1.4 -15.7
v -4.6 1.8 -15.7
v -4.6 2.2 -15.7
v -4.6 2.6 -15.7
v -3.3 1.4 -15.7
v -3.3 1.8 -15.7
v -3.3 2.2 -15.7
v -3.3 2.6 -15.7
v -4.7 0.7 -15.8
v -4.7 2.7 -15.8
v -4.6 0.7 -15.8
v -4.6 2.7 -15.8
v -4.1 0.7 -15.3
v -3.8 0.7 -15.3
v -4.7 0.7 -15.5
v -4.6 0.7 -15.5
v -4.1 0.7 -15.6
v -3.8 0.7 -15.6
v -4.7 0.7 -15.8
v -4.6 0.7 -15.8
v -4.6 1.4 -15.6
v -4.1 1.4 -15.6
v -3.8 1.4 -15.6
v -3.3 1.4 -15.6
v -4.6 1.4 -15.7
v -3.3 1.4 -15.7
v -4.8 1.5 -15.6
v -4.7 1.5 -15.6
v -4.8 1.5 -15.7
v -4.7 1.5 -15.7
v -4.6 2.2 -15.6
v -4.1 2.2 -15.6
v -3.8 2.2 -15.6
v -3.3 2.2 -15.6
v -4.6 2.2 -15.7
v -3.3 2.2 -15.7
v -4.8 2.3 -15.6
v -4.7 2.3 -15.6
v -4.8 2.3 -15.7
v -4.7 2.3 -15.7
v -4.8 1.7 -15.6
v -4.7 1.7 -15.6
v -4.8 1.7 -15.7
v -4.7 1.7 -15.7
v -4.6 1.8 -15.6
v -4.1 1.8 -15.6
v -3.8 1.8 -15.6
v -3.3 1.8 -15.6
v -4.6 1.8 -15.7
v -3.3 1.8 -15.7
v -4.8 2.5 -15.6
v -4.7 2.5 -15.6
v -4.8 2.5 -15.7
v -4.7 2.5 -15.7
v -4.6 2.6 -15.6
v -4.1 2.6 -15.6
v -3.8 2.6 -15.6
v -3.3 2.6 -15.6
v -4.6 2.6 -15.7
v -3.3 2.6 -15.7
v -4.1 2.7 -15.3
v -3.8 2.7 -15.3
v -4.7 2.7 -15.5
v -4.6 2.7 -15.5
v -4.1 2.7 -15.6
v -3.8 2.7 -15.6
v -4.7 2.7 -15.8
v -4.6 2.7 -15.8

# faces
f 11/2/1 10/2/1 9/2/1
f 12/2/1 10/2/1 11/2/1
f 13/2/1 11/2/1 9/2/1
f 14/2/1 10/2/1 12/2/1
f 15/2/1 13/2/1 9/2/1
f 15/2/1 14/2/1 13/2/1
f 16/2/1 10/2/1 14/2/1
f 16/2/1 14/2/1 15/2/1
f 17/2/1 15/2/1 9/2/1
f 18/2/1 10/2/1 16/2/1
f 19/2/1 17/2/1 9/2/1
f 19/2/1 18/2/1 17/2/1
f 20/2/1 10/2/1 18/2/1
f 20/2/1 18/2/1 19/2/1
f 23/2/1 22/2/1 21/2/1
f 24/2/1 23/2/1 21/2/1
f 25/2/1 24/2/1 21/2/1
f 26/2/1 25/2/1 21/2/1
f 27/2/1 26/2/1 21/2/1
f 28/2/1 26/2/1 27/2/1
f 29/2/2 30/2/2 31/2/2
f 31/2/2 30/2/2 32/2/2
f 29/2/2 31/2/2 33/2/2
f 32/2/2 30/2/2 34/2/2
f 29/2/2 33/2/2 35/2/2
f 33/2/2 34/2/2 35/2/2
f 34/2/2 30/2/2 36/2/2
f 35/2/2 34/2/2 36/2/2
f 29/2/2 35/2/2 37/2/2
f 36/2/2 30/2/2 38/2/2
f 29/2/2 37/2/2 39/2/2
f 37/2/2 38/2/2 39/2/2
f 38/2/2 30/2/2 40/2/2
f 39/2/2 38/2/2 40/2/2
f 41/2/2 42/2/2 43/2/2
f 41/2/2 43/2/2 44/2/2
f 41/2/2 44/2/2 45/2/2
f 41/2/2 45/2/2 46/2/2
f 41/2/2 46/2/2 47/2/2
f 47/2/2 46/2/2 48/2/2
f 59/2/3 58/2/3 57/2/3
f 60/2/3 58/2/3 59/2/3
f 63/2/3 62/2/3 61/2/3
f 64/2/3 62/2/3 63/2/3
f 89/2/4 90/2/4 95/2/4
f 95/2/4 90/2/4 96/2/4
f 91/2/4 92/2/4 97/2/4
f 97/2/4 92/2/4 98/2/4
f 93/2/4 94/2/4 99/2/4
f 99/2/4 94/2/4 100/2/4
f 117/2/4 118/2/4 119/2/4
f 119/2/4 118/2/4 120/2/4
f 125/2/5 122/2/5 121/2/5
f 126/2/5 122/2/5 125/2/5
f 127/2/5 124/2/5 123/2/5
f 128/2/5 124/2/5 127/2/5
f 169/2/6 170/2/6 173/2/6
f 173/2/6 170/2/6 174/2/6
f 171/2/6 172/2/6 175/2/6
f 175/2/6 172/2/6 176/2/6