# MagicaVoxel @ Ephtracy

# group
o 

# material
mtllib Fence ver. 1.mtl
usemtl palette

# normals
vn -1 0 0
vn 1 0 0
vn 0 0 1
vn 0 0 -1
vn 0 -1 0
vn 0 1 0

# texcoords
vt 0.533203 0.5
vt 0.537109 0.5

# verts
v -15.9 1.4 -12.9
v -15.9 1.4 -13
v -15.9 1.8 -12.9
v -15.9 1.8 -13
v -15.9 2.2 -12.9
v -15.9 2.2 -13
v -15.9 2.6 -12.9
v -15.9 2.6 -13
v -15.4 0.7 -12.6
v -15.4 0.7 -12.9
v -15.4 1.4 -12.9
v -15.4 1.8 -12.9
v -15.4 2.2 -12.9
v -15.4 2.6 -12.9
v -15.4 2.7 -12.6
v -15.4 2.7 -12.9
v -10.5 0.7 -12.6
v -10.5 0.7 -12.9
v -10.5 1.4 -12.9
v -10.5 1.8 -12.9
v -10.5 2.2 -12.9
v -10.5 2.6 -12.9
v -10.5 2.7 -12.6
v -10.5 2.7 -12.9
v -15.1 0.7 -12.6
v -15.1 0.7 -12.9
v -15.1 1.4 -12.9
v -15.1 1.8 -12.9
v -15.1 2.2 -12.9
v -15.1 2.6 -12.9
v -15.1 2.7 -12.6
v -15.1 2.7 -12.9
v -10.2 0.7 -12.6
v -10.2 0.7 -12.9
v -10.2 1.4 -12.9
v -10.2 1.8 -12.9
v -10.2 2.2 -12.9
v -10.2 2.6 -12.9
v -10.2 2.7 -12.6
v -10.2 2.7 -12.9
v -9.7 1.4 -12.9
v -9.7 1.4 -13
v -9.7 1.8 -12.9
v -9.7 1.8 -13
v -9.7 2.2 -12.9
v -9.7 2.2 -13
v -9.7 2.6 -12.9
v -9.7 2.6 -13
v -15.4 0.7 -12.6
v -15.4 2.7 -12.6
v -15.1 0.7 -12.6
v -15.1 2.7 -12.6
v -10.5 0.7 -12.6
v -10.5 2.7 -12.6
v -10.2 0.7 -12.6
v -10.2 2.7 -12.6
v -15.9 1.4 -12.9
v -15.9 1.8 -12.9
v -15.9 2.2 -12.9
v -15.9 2.6 -12.9
v -15.4 1.4 -12.9
v -15.4 1.8 -12.9
v -15.4 2.2 -12.9
v -15.4 2.6 -12.9
v -15.1 1.4 -12.9
v -15.1 1.8 -12.9
v -15.1 2.2 -12.9
v -15.1 2.6 -12.9
v -10.5 1.4 -12.9
v -10.5 1.8 -12.9
v -10.5 2.2 -12.9
v -10.5 2.6 -12.9
v -10.2 1.4 -12.9
v -10.2 1.8 -12.9
v -10.2 2.2 -12.9
v -10.2 2.6 -12.9
v -9.7 1.4 -12.9
v -9.7 1.8 -12.9
v -9.7 2.2 -12.9
v -9.7 2.6 -12.9
v -15.4 0.7 -12.9
v -15.4 1.4 -12.9
v -15.4 1.8 -12.9
v -15.4 2.2 -12.9
v -15.4 2.6 -12.9
v -15.4 2.7 -12.9
v -15.1 0.7 -12.9
v -15.1 1.4 -12.9
v -15.1 1.8 -12.9
v -15.1 2.2 -12.9
v -15.1 2.6 -12.9
v -15.1 2.7 -12.9
v -10.5 0.7 -12.9
v -10.5 1.4 -12.9
v -10.5 1.8 -12.9
v -10.5 2.2 -12.9
v -10.5 2.6 -12.9
v -10.5 2.7 -12.9
v -10.2 0.7 -12.9
v -10.2 1.4 -12.9
v -10.2 1.8 -12.9
v -10.2 2.2 -12.9
v -10.2 2.6 -12.9
v -10.2 2.7 -12.9
v -15.9 1.4 -13
v -15.9 1.8 -13
v -15.9 2.2 -13
v -15.9 2.6 -13
v -9.7 1.4 -13
v -9.7 1.8 -13
v -9.7 2.2 -13
v -9.7 2.6 -13
v -15.4 0.7 -12.6
v -15.1 0.7 -12.6
v -10.5 0.7 -12.6
v -10.2 0.7 -12.6
v -15.4 0.7 -12.9
v -15.1 0.7 -12.9
v -10.5 0.7 -12.9
v -10.2 0.7 -12.9
v -15.9 1.4 -12.9
v -15.4 1.4 -12.9
v -15.1 1.4 -12.9
v -10.5 1.4 -12.9
v -10.2 1.4 -12.9
v -9.7 1.4 -12.9
v -15.9 1.4 -13
v -9.7 1.4 -13
v -15.9 2.2 -12.9
v -15.4 2.2 -12.9
v -15.1 2.2 -12.9
v -10.5 2.2 -12.9
v -10.2 2.2 -12.9
v -9.7 2.2 -12.9
v -15.9 2.2 -13
v -9.7 2.2 -13
v -15.9 1.8 -12.9
v -15.4 1.8 -12.9
v -15.1 1.8 -12.9
v -10.5 1.8 -12.9
v -10.2 1.8 -12.9
v -9.7 1.8 -12.9
v -15.9 1.8 -13
v -9.7 1.8 -13
v -15.9 2.6 -12.9
v -15.4 2.6 -12.9
v -15.1 2.6 -12.9
v -10.5 2.6 -12.9
v -10.2 2.6 -12.9
v -9.7 2.6 -12.9
v -15.9 2.6 -13
v -9.7 2.6 -13
v -15.4 2.7 -12.6
v -15.1 2.7 -12.6
v -10.5 2.7 -12.6
v -10.2 2.7 -12.6
v -15.4 2.7 -12.9
v -15.1 2.7 -12.9
v -10.5 2.7 -12.9
v -10.2 2.7 -12.9

# faces
f 3/1/1 2/1/1 1/1/1
f 4/1/1 2/1/1 3/1/1
f 7/1/1 6/1/1 5/1/1
f 8/1/1 6/1/1 7/1/1
f 41/1/2 42/1/2 43/1/2
f 43/1/2 42/1/2 44/1/2
f 45/1/2 46/1/2 47/1/2
f 47/1/2 46/1/2 48/1/2
f 61/1/3 58/1/3 57/1/3
f 62/1/3 58/1/3 61/1/3
f 63/1/3 60/1/3 59/1/3
f 64/1/3 60/1/3 63/1/3
f 69/1/3 66/1/3 65/1/3
f 70/1/3 66/1/3 69/1/3
f 71/1/3 68/1/3 67/1/3
f 72/1/3 68/1/3 71/1/3
f 77/1/3 74/1/3 73/1/3
f 78/1/3 74/1/3 77/1/3
f 79/1/3 76/1/3 75/1/3
f 80/1/3 76/1/3 79/1/3
f 105/1/4 106/1/4 109/1/4
f 109/1/4 106/1/4 110/1/4
f 107/1/4 108/1/4 111/1/4
f 111/1/4 108/1/4 112/1/4
f 127/1/5 122/1/5 121/1/5
f 127/1/5 126/1/5 125/1/5
f 127/1/5 125/1/5 124/1/5
f 127/1/5 124/1/5 123/1/5
f 127/1/5 123/1/5 122/1/5
f 128/1/5 126/1/5 127/1/5
f 135/1/5 130/1/5 129/1/5
f 135/1/5 134/1/5 133/1/5
f 135/1/5 133/1/5 132/1/5
f 135/1/5 132/1/5 131/1/5
f 135/1/5 131/1/5 130/1/5
f 136/1/5 134/1/5 135/1/5
f 137/1/6 138/1/6 143/1/6
f 141/1/6 142/1/6 143/1/6
f 140/1/6 141/1/6 143/1/6
f 139/1/6 140/1/6 143/1/6
f 138/1/6 139/1/6 143/1/6
f 143/1/6 142/1/6 144/1/6
f 145/1/6 146/1/6 151/1/6
f 149/1/6 150/1/6 151/1/6
f 148/1/6 149/1/6 151/1/6
f 147/1/6 148/1/6 151/1/6
f 146/1/6 147/1/6 151/1/6
f 151/1/6 150/1/6 152/1/6